<svg width="200" height="200" viewBox="0 0 200 200" xmlns="http://www.w3.org/2000/svg">
  <rect width="200" height="200" fill="#fef3c7" stroke="#f59e0b" stroke-width="2" rx="12"/>
  
  <!-- 火焰背景 -->
  <path d="M 100 180 Q 80 160 90 140 Q 100 150 110 140 Q 120 160 100 180" fill="#ef4444" opacity="0.6"/>
  <path d="M 100 175 Q 85 155 95 135 Q 100 145 105 135 Q 115 155 100 175" fill="#dc2626" opacity="0.8"/>
  
  <!-- 灶神形象 -->
  <circle cx="100" cy="80" r="30" fill="#fbbf24" stroke="#f59e0b" stroke-width="2"/>
  <circle cx="90" cy="75" r="3" fill="#1f2937"/>
  <circle cx="110" cy="75" r="3" fill="#1f2937"/>
  <path d="M 100 85 Q 110 95 100 105 Q 90 95 100 85" fill="#dc2626"/>
  
  <!-- 官帽 -->
  <rect x="85" y="50" width="30" height="15" fill="#1f2937" rx="3"/>
  <rect x="95" y="45" width="10" height="10" fill="#fbbf24"/>
  
  <!-- 文字 -->
  <text x="100" y="160" text-anchor="middle" font-family="serif" font-size="14" fill="#92400e">灶神</text>
</svg>
